<svg xmlns="http://www.w3.org/2000/svg" viewBox="0 13.989999771118164 209.7899932861328 35.9900016784668" data-asc="0.98974609375" width="209.7899932861328" height="35.9900016784668"><defs/><g fill="#ffffff"><g transform="translate(0, 0)"><path d="M32.15 40.58Q32.15 42.48 31.49 44.12Q30.83 45.75 29.65 46.95Q28.47 48.14 26.83 48.82Q25.20 49.49 23.27 49.49L0 49.49L0 43.14L23.27 43.14Q24.44 43.14 25.10 42.47Q25.76 41.80 25.76 40.58L25.76 14.48L32.15 14.48L32.15 40.58ZM84.47 35.18L64.43 35.18L64.43 28.78L84.47 28.78L84.47 35.18M87.33 49.49L64.43 49.49Q63.11 49.49 61.55 49.02Q59.99 48.56 58.65 47.50Q57.32 46.44 56.43 44.74Q55.54 43.04 55.54 40.58L55.54 17.68Q55.54 17.02 55.79 16.43Q56.03 15.84 56.46 15.41Q56.88 14.97 57.47 14.72Q58.06 14.48 58.74 14.48L87.33 14.48L87.33 20.83L61.89 20.83L61.89 40.58Q61.89 41.82 62.55 42.48Q63.21 43.14 64.48 43.14L87.33 43.14L87.33 49.49ZM124.58 49.49L101.68 49.49Q100.81 49.49 99.79 49.28Q98.78 49.07 97.79 48.63Q96.80 48.19 95.90 47.50Q95.00 46.80 94.30 45.81Q93.60 44.82 93.19 43.52Q92.77 42.21 92.77 40.58L92.77 23.39Q92.77 22.51 92.98 21.50Q93.19 20.48 93.63 19.49Q94.07 18.51 94.78 17.60Q95.48 16.70 96.47 16.00Q97.46 15.31 98.75 14.89Q100.05 14.48 101.68 14.48L124.58 14.48L124.58 20.83L101.68 20.83Q100.44 20.83 99.78 21.48Q99.12 22.14 99.12 23.44L99.12 40.58Q99.12 41.80 99.79 42.47Q100.46 43.14 101.68 43.14L124.58 43.14L124.58 49.49ZM136.99 28.78L159.28 28.78L159.28 14.48L165.63 14.48L165.63 49.49L159.28 49.49L159.28 35.18L136.99 35.18L136.99 49.49L130.64 49.49L130.64 14.48L136.99 14.48L136.99 28.78ZM209.79 35.33Q209.79 38.53 208.69 41.21Q207.59 43.90 205.64 45.85Q203.69 47.80 201.01 48.89Q198.34 49.98 195.19 49.98L186.60 49.98Q183.45 49.98 180.76 48.89Q178.08 47.80 176.12 45.85Q174.17 43.90 173.06 41.21Q171.95 38.53 171.95 35.33L171.95 28.64Q171.95 25.46 173.06 22.77Q174.17 20.07 176.12 18.13Q178.08 16.19 180.76 15.09Q183.45 13.99 186.60 13.99L195.19 13.99Q198.34 13.99 201.01 15.09Q203.69 16.19 205.64 18.13Q207.59 20.07 208.69 22.77Q209.79 25.46 209.79 28.64L209.79 35.33M203.44 28.64Q203.44 26.76 202.84 25.23Q202.25 23.71 201.16 22.62Q200.07 21.53 198.55 20.94Q197.02 20.34 195.19 20.34L186.60 20.34Q184.74 20.34 183.22 20.94Q181.69 21.53 180.59 22.62Q179.49 23.71 178.89 25.23Q178.30 26.76 178.30 28.64L178.30 35.33Q178.30 37.21 178.89 38.73Q179.49 40.26 180.59 41.35Q181.69 42.43 183.22 43.03Q184.74 43.63 186.60 43.63L195.14 43.63Q197.00 43.63 198.52 43.03Q200.05 42.43 201.15 41.35Q202.25 40.26 202.84 38.73Q203.44 37.21 203.44 35.33L203.44 28.64Z"/></g></g></svg>